<?xml version="1.0" encoding="utf-8"?>
<!-- Generator: Adobe Illustrator 16.0.4, SVG Export Plug-In . SVG Version: 6.00 Build 0)  -->
<!DOCTYPE svg PUBLIC "-//W3C//DTD SVG 1.1//EN" "http://www.w3.org/Graphics/SVG/1.1/DTD/svg11.dtd">
<svg version="1.1"
	 id="svg53383_-_copie" xmlns:svg="http://www.w3.org/2000/svg" sodipodi:docname="application-x-executable.svg" sodipodi:version="0.32" inkscape:output_extension="org.inkscape.output.svg.inkscape" inkscape:version="0.43+devel" sodipodi:docbase="/home/tigert/cvs/freedesktop.org/tango-icon-theme/scalable/mimetypes" xmlns:rdf="http://www.w3.org/1999/02/22-rdf-syntax-ns#" xmlns:dc="http://purl.org/dc/elements/1.1/" xmlns:inkscape="http://www.inkscape.org/namespaces/inkscape" xmlns:sodipodi="http://inkscape.sourceforge.net/DTD/sodipodi-0.dtd" xmlns:cc="http://web.resource.org/cc/"
	 xmlns="http://www.w3.org/2000/svg" xmlns:xlink="http://www.w3.org/1999/xlink" x="0px" y="0px" width="48px" height="48px"
	 viewBox="0 0 48 48" enable-background="new 0 0 48 48" xml:space="preserve">
<sodipodi:namedview  inkscape:grid-bbox="true" inkscape:window-x="414" inkscape:window-y="275" inkscape:window-height="697" inkscape:window-width="716" inkscape:pageshadow="2" inkscape:document-units="px" inkscape:showpageshadow="false" inkscape:pageopacity="0.0" inkscape:current-layer="layer2" inkscape:cx="22.871258" showgrid="false" borderopacity="1.0" inkscape:zoom="4.0000000" inkscape:cy="31.586960" bordercolor="#666666" pagecolor="#ffffff" id="base">
	</sodipodi:namedview>
<g id="layer2_1_" inkscape:groupmode="layer" inkscape:label="shadow">
	
		<radialGradient id="path1538_2_" cx="-317.9277" cy="-74.2563" r="11.6896" fx="-317.9277" fy="-70.5614" gradientTransform="matrix(1.6601 0 0 -0.6089 552.1337 -5.3313)" gradientUnits="userSpaceOnUse">
		<stop  offset="0" style="stop-color:#000000;stop-opacity:0.3267"/>
		<stop  offset="1" style="stop-color:#000000;stop-opacity:0"/>
	</radialGradient>
	
		<path id="path1538_1_" sodipodi:cx="24.357143" sodipodi:cy="38.714287" sodipodi:ry="9.8372450" sodipodi:type="arc" sodipodi:rx="19.928572" fill="url(#path1538_2_)" d="
		M48,38.135c0.004,6.445-10.577,11.673-23.635,11.676C11.308,49.812,0.719,44.589,0.714,38.143c0-0.002,0-0.005,0-0.008
		C0.71,31.689,11.292,26.463,24.349,26.461C37.406,26.458,47.996,31.682,48,38.127C48,38.13,48,38.133,48,38.135z"/>
</g>
<g id="layer1_1_" inkscape:groupmode="layer" inkscape:label="Layer 1">
	
		<linearGradient id="path53304_2_" gradientUnits="userSpaceOnUse" x1="1507.623" y1="-935.9727" x2="1560.8462" y2="-1169.1799" gradientTransform="matrix(0.2007 0 0 -0.2007 -283.1197 -185.792)">
		<stop  offset="0" style="stop-color:#184375"/>
		<stop  offset="1" style="stop-color:#C8BDDC"/>
	</linearGradient>
	<path id="path53304_1_" fill="url(#path53304_2_)" stroke="#3F4561" stroke-linecap="round" stroke-linejoin="round" d="
		M24.286,43.196L4.375,23.286L24.286,3.375l19.911,19.911L24.286,43.196L24.286,43.196z"/>
	<path id="path53359_1_" sodipodi:nodetypes="ccccccc" opacity="0.72" fill="#FFFFFF" enable-background="new    " d="
		M43.505,23.286L24.286,4.066L5.066,23.286l0.781,0.625L24.457,5.482L43.505,23.286L43.505,23.286z"/>
	<path id="path53361_1_" opacity="0.5" fill="#FFFFFF" enable-background="new    " d="M39.783,19.306l-0.738,1.023
		c-0.637-0.269-1.301-0.484-1.986-0.645l0.006-1.577c-0.428-0.089-0.863-0.156-1.303-0.204l-0.482,1.502
		c-0.344-0.029-0.691-0.045-1.043-0.045s-0.699,0.016-1.043,0.045l-0.482-1.502c-0.441,0.048-0.877,0.115-1.305,0.204l0.006,1.577
		c-0.686,0.16-1.35,0.376-1.985,0.645l-0.923-1.279c-0.402,0.182-0.794,0.383-1.174,0.601l0.492,1.498
		c-0.598,0.362-1.162,0.772-1.688,1.228l-1.271-0.932c-0.326,0.297-0.638,0.608-0.935,0.934l0.933,1.272
		c-0.456,0.525-0.866,1.089-1.229,1.687l-1.498-0.492c-0.217,0.381-0.418,0.772-0.6,1.175l1.279,0.923
		c-0.269,0.637-0.485,1.301-0.645,1.986l-1.577-0.006c-0.089,0.428-0.156,0.863-0.204,1.304l1.502,0.481
		c-0.029,0.344-0.045,0.692-0.045,1.043c0,0.352,0.016,0.699,0.045,1.044l-1.502,0.481c0.048,0.441,0.115,0.877,0.203,1.305
		l1.578-0.006c0.159,0.686,0.376,1.35,0.645,1.986l-1.279,0.922c0.182,0.402,0.383,0.795,0.6,1.176l1.498-0.494
		c0.363,0.598,0.774,1.162,1.229,1.688l-0.932,1.272c0.278,0.306,0.571,0.598,0.876,0.878l18.838-18.839l-1.006-1.007l-0.299,0.219
		c-0.527-0.455-1.09-0.865-1.688-1.229l0.242-0.734L39.783,19.306L39.783,19.306z"/>
	<path id="path53363_1_" opacity="0.5" fill="#FFFFFF" enable-background="new    " d="M20.261,14.259
		c0,6.484-4.234,11.979-10.087,13.875l2.228,2.228c0.016-0.008,0.033-0.014,0.05-0.021l0.182,0.251l1.412,1.412
		c0.463-0.219,0.917-0.454,1.359-0.707l-0.694-2.109c0.842-0.51,1.636-1.088,2.376-1.729l1.791,1.312
		c0.458-0.417,0.897-0.856,1.314-1.314l-1.312-1.791c0.641-0.74,1.219-1.535,1.729-2.375l2.109,0.694
		c0.307-0.537,0.59-1.088,0.846-1.655l-1.802-1.298c0.378-0.896,0.683-1.832,0.907-2.797l2.221,0.008
		c0.124-0.602,0.22-1.215,0.288-1.836l-2.115-0.678c0.04-0.484,0.062-0.975,0.062-1.469s-0.021-0.984-0.062-1.469l2.115-0.678
		c-0.068-0.621-0.164-1.234-0.288-1.836l-2.221,0.008c-0.225-0.965-0.529-1.9-0.907-2.797l1.802-1.298
		c-0.143-0.315-0.295-0.625-0.453-0.931l-3.803,3.804C19.923,10.677,20.261,12.429,20.261,14.259L20.261,14.259z"/>
	<path id="path53365_1_" sodipodi:nodetypes="ccccccc" opacity="0.35" enable-background="new    " d="M5.205,23.424l19.081,19.081
		l19.219-19.219l-0.715-0.682L24.311,41.041L5.205,23.424L5.205,23.424z"/>
</g>
<g>
	<linearGradient id="SVGID_1_" gradientUnits="userSpaceOnUse" x1="33.6094" y1="18.6709" x2="35.3324" y2="55.9575">
		<stop  offset="0" style="stop-color:#FFFFFF"/>
		<stop  offset="1" style="stop-color:#FFFFFF;stop-opacity:0"/>
	</linearGradient>
	<circle fill="url(#SVGID_1_)" cx="34.217" cy="31.81" r="11"/>
	<path id="path148_1_" inkscape:connector-curvature="0" d="M34.202,20.78c-6.079,0-11.015,4.934-11.015,11.014
		c0,2.8,1.048,5.356,2.771,7.3l4.544-0.023l0.021-7.397h7.377l0.039-7.295l4.412,0.011C40.336,22.172,37.432,20.78,34.202,20.78z
		 M42.353,24.388c1.779,1.957,2.864,4.555,2.864,7.406c0,6.08-4.935,11.016-11.015,11.016c-3.278,0-6.225-1.438-8.243-3.716
		l-2.711,0.017l0.04,3.819l22.049-0.021l-0.08-18.511L42.353,24.388z"/>
</g>
</svg>
