<?xml version="1.0" encoding="utf-8"?>
<!-- Generator: Adobe Illustrator 16.0.4, SVG Export Plug-In . SVG Version: 6.00 Build 0)  -->
<!DOCTYPE svg PUBLIC "-//W3C//DTD SVG 1.1//EN" "http://www.w3.org/Graphics/SVG/1.1/DTD/svg11.dtd">
<svg version="1.1" id="Calque_2" xmlns="http://www.w3.org/2000/svg" xmlns:xlink="http://www.w3.org/1999/xlink" x="0px" y="0px"
	 width="48px" height="48px" viewBox="0 0 48 48" enable-background="new 0 0 48 48" xml:space="preserve">
<sodipodi:namedview  showgrid="false" inkscape:cy="48.133585" inkscape:cx="56.648344" inkscape:zoom="1.4142136" borderopacity="1.0000000" bordercolor="#bebebe" pagecolor="#ffffff" id="base" inkscape:showpageshadow="false" inkscape:window-y="242" inkscape:window-x="264" inkscape:window-height="699" inkscape:window-width="873" inkscape:document-units="px" inkscape:pageshadow="2" inkscape:grid-bbox="true" inkscape:pageopacity="0.0" inkscape:current-layer="layer1">
	</sodipodi:namedview>
<g id="layer1_2_" inkscape:label="Layer 1" inkscape:groupmode="layer">
	<g id="g4268_2_" transform="matrix(1.001508,0.000000,0.000000,1.000616,-5.002205e-2,-6.304895e-2)" opacity="0.5">
		
			<rect id="rect2279_2_" x="9.357" y="26.426" transform="matrix(-0.992 0.1262 -0.1262 -0.992 35.0481 52.6304)" opacity="0.1705" enable-background="new    " width="13" height="1.997"/>
	</g>
	<g id="g12863_2_">
		<path id="rect12413_2_" sodipodi:nodetypes="ccccccccc" fill="#BCBEC0" stroke="#888A85" d="M1.253,4.548l29.619-3.769
			c0.312-0.04,0.596,0.179,0.635,0.491l3.43,26.949c0.312,2.457-5.775,9.105-8.145,9.406l-20.99,2.67
			c-0.313,0.041-0.597-0.18-0.637-0.492L0.76,5.183C0.72,4.871,0.94,4.587,1.253,4.548z"/>
		
			<linearGradient id="rect15244_3_" gradientUnits="userSpaceOnUse" x1="21.7524" y1="53.3252" x2="26.4876" y2="38.0142" gradientTransform="matrix(0.9914 -0.1262 -0.1262 -0.992 4.6246 78.6559)">
			<stop  offset="0" style="stop-color:#FFFFFF"/>
			<stop  offset="1" style="stop-color:#FFFFFF;stop-opacity:0"/>
		</linearGradient>
		
			<rect id="rect15244_2_" x="3.839" y="3.518" transform="matrix(-0.992 0.1262 -0.1262 -0.992 39.1201 38.5973)" fill="none" stroke="url(#rect15244_3_)" width="28.997" height="34.04"/>
		
			<linearGradient id="path2210_3_" gradientUnits="userSpaceOnUse" x1="32.9873" y1="40.877" x2="30.6552" y2="43.565" gradientTransform="matrix(0.992 -0.1262 -0.1262 -0.992 5.1599 79.2125)">
			<stop  offset="0" style="stop-color:#7C7C7C"/>
			<stop  offset="1" style="stop-color:#B8B8B8"/>
		</linearGradient>
		<path id="path2210_2_" sodipodi:nodetypes="cccc" fill="url(#path2210_3_)" stroke="#868A84" d="M26.78,37.625
			c2.057,0.07,8.941-5.705,8.139-9.604c-1.246,2.602-4.559,1.879-8.613,2.553C26.306,30.574,27.524,37.025,26.78,37.625z"/>
		
			<linearGradient id="path2247_3_" gradientUnits="userSpaceOnUse" x1="30.167" y1="44.2002" x2="30.9409" y2="43.0514" gradientTransform="matrix(0.992 -0.1262 -0.1262 -0.992 5.1125 78.8395)">
			<stop  offset="0" style="stop-color:#FFFFFF"/>
			<stop  offset="1" style="stop-color:#FFFFFF;stop-opacity:0"/>
		</linearGradient>
		
			<path id="path2247_2_" sodipodi:nodetypes="cccc" opacity="0.3693" fill="none" stroke="url(#path2247_3_)" enable-background="new    " d="
			M27.944,35.268c1.271-0.852,4.121-2.689,5.172-4.719c-1.498,0.875-2.898,0.58-5.631,0.908
			C27.485,31.457,28.032,34.475,27.944,35.268z"/>
		
			<rect id="rect2271_2_" x="7.26" y="11.056" transform="matrix(-0.992 0.1262 -0.1262 -0.992 36.8999 21.7739)" opacity="0.1705" enable-background="new    " width="21" height="2"/>
		
			<rect id="rect2273_2_" x="7.769" y="15.088" transform="matrix(-0.992 0.1262 -0.1262 -0.992 37.4196 29.8043)" opacity="0.1705" enable-background="new    " width="19.992" height="2"/>
		
			<rect id="rect2275_2_" x="8.282" y="19.183" transform="matrix(-0.992 0.1262 -0.1262 -0.992 36.9508 38.0249)" opacity="0.1705" enable-background="new    " width="17.977" height="2"/>
		
			<rect id="rect2277_2_" x="8.775" y="22.96" transform="matrix(-0.992 0.1262 -0.1262 -0.992 41.42 45.2947)" opacity="0.1705" enable-background="new    " width="21" height="1.998"/>
	</g>
</g>
<sodipodi:namedview  showgrid="false" inkscape:cy="48.133585" inkscape:cx="56.648344" inkscape:zoom="1.4142136" borderopacity="1.0000000" bordercolor="#bebebe" pagecolor="#ffffff" id="base" inkscape:showpageshadow="false" inkscape:window-y="242" inkscape:window-x="264" inkscape:window-height="699" inkscape:window-width="873" inkscape:document-units="px" inkscape:pageshadow="2" inkscape:grid-bbox="true" inkscape:pageopacity="0.0" inkscape:current-layer="layer1">
	</sodipodi:namedview>
<g id="layer1" inkscape:label="Layer 1" inkscape:groupmode="layer">
	<g id="g4268" transform="matrix(1.001508,0.000000,0.000000,1.000616,-5.002205e-2,-6.304895e-2)" opacity="0.5">
		<rect id="rect2279" x="14.162" y="28.407" opacity="0.1705" enable-background="new    " width="13" height="1.999"/>
	</g>
	<g id="g12863">
		<path id="rect12413" sodipodi:nodetypes="ccccccccc" fill="#DCDDDE" stroke="#888A85" d="M9.064,4.871h29.857
			c0.315,0,0.569,0.253,0.569,0.567v27.167c0,2.477-6.88,8.303-9.268,8.303H9.064c-0.315,0-0.57-0.254-0.57-0.568V5.438
			C8.494,5.124,8.749,4.871,9.064,4.871z"/>
		
			<linearGradient id="rect15244_4_" gradientUnits="userSpaceOnUse" x1="27.5098" y1="50.6025" x2="32.2447" y2="35.2922" gradientTransform="matrix(0.9994 0 0 -1 -2.6988 76.0879)">
			<stop  offset="0" style="stop-color:#FFFFFF"/>
			<stop  offset="1" style="stop-color:#FFFFFF;stop-opacity:0"/>
		</linearGradient>
		<rect id="rect15244" x="9.494" y="5.87" fill="none" stroke="url(#rect15244_4_)" width="28.997" height="34.04"/>
		
			<linearGradient id="path2210_4_" gradientUnits="userSpaceOnUse" x1="38.7002" y1="37.5332" x2="36.368" y2="40.2213" gradientTransform="matrix(1 0 0 -1 -2.1982 76.0879)">
			<stop  offset="0" style="stop-color:#7C7C7C"/>
			<stop  offset="1" style="stop-color:#B8B8B8"/>
		</linearGradient>
		<path id="path2210" sodipodi:nodetypes="cccc" fill="url(#path2210_4_)" stroke="#868A84" d="M30.212,40.906
			c2.031,0.33,9.589-4.529,9.285-8.498c-1.564,2.424-4.76,1.287-8.867,1.445C30.63,33.854,31.024,40.406,30.212,40.906z"/>
		
			<linearGradient id="path2247_4_" gradientUnits="userSpaceOnUse" x1="35.8799" y1="40.8545" x2="36.654" y2="39.7054" gradientTransform="matrix(1 0 0 -1 -2.1982 75.7129)">
			<stop  offset="0" style="stop-color:#FFFFFF"/>
			<stop  offset="1" style="stop-color:#FFFFFF;stop-opacity:0"/>
		</linearGradient>
		
			<path id="path2247" sodipodi:nodetypes="cccc" opacity="0.3693" fill="none" stroke="url(#path2247_4_)" enable-background="new    " d="
			M31.663,38.715c1.369-0.684,4.428-2.146,5.727-4.027c-1.596,0.68-2.947,0.209-5.701,0.189
			C31.688,34.877,31.851,37.939,31.663,38.715z"/>
		<rect id="rect2271" x="13.991" y="13.403" opacity="0.1705" enable-background="new    " width="21" height="2"/>
		<rect id="rect2273" x="13.991" y="17.403" opacity="0.1705" enable-background="new    " width="19.992" height="2"/>
		<rect id="rect2275" x="13.991" y="21.403" opacity="0.1705" enable-background="new    " width="17.977" height="2"/>
		<rect id="rect2277" x="13.991" y="25.403" opacity="0.1705" enable-background="new    " width="21" height="1.999"/>
	</g>
</g>
<sodipodi:namedview  showgrid="false" inkscape:cy="48.133585" inkscape:cx="56.648344" inkscape:zoom="1.4142136" borderopacity="1.0000000" bordercolor="#bebebe" pagecolor="#ffffff" id="base" inkscape:showpageshadow="false" inkscape:window-y="242" inkscape:window-x="264" inkscape:window-height="699" inkscape:window-width="873" inkscape:document-units="px" inkscape:pageshadow="2" inkscape:grid-bbox="true" inkscape:pageopacity="0.0" inkscape:current-layer="layer1">
	</sodipodi:namedview>
<g id="layer1_1_" inkscape:label="Layer 1" inkscape:groupmode="layer">
	<g id="g4268_1_" transform="matrix(1.001508,0.000000,0.000000,1.000616,-5.002205e-2,-6.304895e-2)" opacity="0.5">
		
			<rect id="rect2279_1_" x="17.775" y="32.65" transform="matrix(-0.9809 -0.1946 0.1946 -0.9809 41.5381 71.3796)" opacity="0.1705" enable-background="new    " width="13" height="2"/>
	</g>
	<g id="g12863_1_">
		
			<linearGradient id="rect12413_3_" gradientUnits="userSpaceOnUse" x1="10.7988" y1="48.6582" x2="24.2752" y2="28.1531" gradientTransform="matrix(1.0468 0.2077 0.1925 -0.9704 5.7589 67.5775)">
			<stop  offset="0" style="stop-color:#F0F0EF"/>
			<stop  offset="0.5993" style="stop-color:#E8E8E8"/>
			<stop  offset="0.8276" style="stop-color:#FFFFFF"/>
			<stop  offset="1" style="stop-color:#D8D8D3"/>
		</linearGradient>
		<path id="rect12413_1_" sodipodi:nodetypes="ccccccccc" fill="url(#rect12413_3_)" stroke="#888A85" d="M17.669,7.332l29.286,5.81
			c0.31,0.062,0.509,0.359,0.448,0.667l-5.287,26.649c-0.481,2.428-8.364,6.805-10.706,6.34l-20.754-4.117
			c-0.31-0.062-0.51-0.359-0.449-0.668L17,7.777C17.061,7.469,17.359,7.271,17.669,7.332z"/>
		
			<linearGradient id="rect15244_5_" gradientUnits="userSpaceOnUse" x1="32.376" y1="45.6328" x2="37.1108" y2="30.323" gradientTransform="matrix(0.9803 0.1945 0.1946 -0.9809 -11.5322 69.0779)">
			<stop  offset="0" style="stop-color:#FFFFFF"/>
			<stop  offset="1" style="stop-color:#FFFFFF;stop-opacity:0"/>
		</linearGradient>
		
			<rect id="rect15244_1_" x="14.307" y="10.891" transform="matrix(-0.9809 -0.1946 0.1946 -0.9809 51.6292 60.8951)" fill="none" stroke="url(#rect15244_5_)" width="28.997" height="34.04"/>
		
			<linearGradient id="path2210_5_" gradientUnits="userSpaceOnUse" x1="43.5" y1="32.4082" x2="41.1681" y2="35.096" gradientTransform="matrix(0.9809 0.1946 0.1946 -0.9809 -10.9472 69.0374)">
			<stop  offset="0" style="stop-color:#7C7C7C"/>
			<stop  offset="1" style="stop-color:#B8B8B8"/>
		</linearGradient>
		<path id="path2210_1_" sodipodi:nodetypes="cccc" fill="url(#path2210_5_)" stroke="#868A84" d="M31.4,46.794
			c1.928,0.72,10.287-2.577,10.761-6.528c-2.006,2.073-4.919,0.336-8.979-0.308C33.183,39.958,32.294,46.462,31.4,46.794z"/>
		
			<linearGradient id="path2247_5_" gradientUnits="userSpaceOnUse" x1="40.6797" y1="35.7305" x2="41.4537" y2="34.5815" gradientTransform="matrix(0.9809 0.1946 0.1946 -0.9809 -10.8739 68.6692)">
			<stop  offset="0" style="stop-color:#FFFFFF"/>
			<stop  offset="1" style="stop-color:#FFFFFF;stop-opacity:0"/>
		</linearGradient>
		
			<path id="path2247_1_" sodipodi:nodetypes="cccc" opacity="0.3693" fill="none" stroke="url(#path2247_5_)" enable-background="new    " d="
			M33.25,44.927c1.476-0.403,4.761-1.243,6.4-2.836c-1.697,0.356-2.932-0.368-5.629-0.923C34.021,41.168,33.585,44.203,33.25,44.927
			z"/>
		
			<rect id="rect2271_1_" x="20.446" y="18.684" transform="matrix(-0.9809 -0.1946 0.1946 -0.9809 57.4704 45.0131)" opacity="0.1705" enable-background="new    " width="21.001" height="2"/>
		
			<rect id="rect2273_1_" x="19.678" y="22.509" transform="matrix(-0.9809 -0.1946 0.1946 -0.9809 54.2047 52.3438)" opacity="0.1705" enable-background="new    " width="19.992" height="2"/>
		
			<rect id="rect2275_1_" x="18.918" y="26.237" transform="matrix(-0.9809 -0.1946 0.1946 -0.9809 49.9797 59.3832)" opacity="0.1705" enable-background="new    " width="17.977" height="2"/>
		
			<rect id="rect2277_1_" x="18.111" y="30.455" transform="matrix(-0.9809 -0.1946 0.1946 -0.9809 50.5551 67.875)" opacity="0.1705" enable-background="new    " width="20.999" height="2"/>
	</g>
</g>
</svg>
